<svg xmlns="http://www.w3.org/2000/svg" fill="none" viewBox="0 0 24 24" stroke-width="2" stroke="currentColor">
  <path stroke-linecap="round" stroke-linejoin="round" d="M16.5 6v.75m0 3v.75m0 3v.75m0 3V18m-9-5.25h.008v.008H7.5V12.75Zm3 0h.008v.008H10.5V12.75Zm3 0h.008v.008H13.5V12.75Zm-6 3h.008v.008H7.5v-.008Zm3 0h.008v.008H10.5v-.008Zm3 0h.008v.008H13.5v-.008Zm-6 3h.008v.008H7.5v-.008Zm3 0h.008v.008H10.5v-.008Zm3 0h.008v.008H13.5v-.008Z" />
  <path stroke-linecap="round" stroke-linejoin="round" d="M6 20.25h12A2.25 2.25 0 0 0 20.25 18V6A2.25 2.25 0 0 0 18 3.75H6A2.25 2.25 0 0 0 3.75 6v12A2.25 2.25 0 0 0 6 20.25Z" />
</svg>
